/* XPM */
static char * lemp0_24_xpm[] = {
"24 24 219 2",
"  	c None",
". 	c #0D0A0C",
"+ 	c #0F0D0F",
"@ 	c #100D0F",
"# 	c #0F0C0E",
"$ 	c #0E0B0D",
"% 	c #121112",
"& 	c #141314",
"* 	c #151415",
"= 	c #141315",
"- 	c #141214",
"; 	c #0C090B",
"> 	c #100E10",
", 	c #161617",
"' 	c #110F11",
") 	c #121012",
"! 	c #131113",
"~ 	c #0D0B0D",
"{ 	c #161516",
"] 	c #111011",
"^ 	c #100E0F",
"/ 	c #151416",
"( 	c #131214",
"_ 	c #151516",
": 	c #171618",
"< 	c #171719",
"[ 	c #171718",
"} 	c #141415",
"| 	c #110E10",
"1 	c #151315",
"2 	c #131213",
"3 	c #18181A",
"4 	c #120F11",
"5 	c #181617",
"6 	c #151314",
"7 	c #19191B",
"8 	c #282A2B",
"9 	c #282828",
"0 	c #272727",
"a 	c #222326",
"b 	c #181819",
"c 	c #171516",
"d 	c #161415",
"e 	c #121113",
"f 	c #1B1C1F",
"g 	c #2E2E2E",
"h 	c #1F1D1D",
"i 	c #252322",
"j 	c #353533",
"k 	c #171617",
"l 	c #141213",
"m 	c #171517",
"n 	c #2F3134",
"o 	c #1D1B1A",
"p 	c #131012",
"q 	c #2D2B2B",
"r 	c #1F2124",
"s 	c #191819",
"t 	c #29292B",
"u 	c #191717",
"v 	c #1B191A",
"w 	c #1E1B1B",
"x 	c #181719",
"y 	c #1D1E21",
"z 	c #1C1B1C",
"A 	c #181718",
"B 	c #1D1B1C",
"C 	c #1B1819",
"D 	c #1D1E20",
"E 	c #1B1A1C",
"F 	c #333333",
"G 	c #252525",
"H 	c #1B1A1B",
"I 	c #19191A",
"J 	c #1B1C1D",
"K 	c #1A191A",
"L 	c #1E1E1F",
"M 	c #26282D",
"N 	c #202224",
"O 	c #1C1D1F",
"P 	c #1D1F21",
"Q 	c #1C1C1E",
"R 	c #1C1D1E",
"S 	c #282F37",
"T 	c #5C656C",
"U 	c #363432",
"V 	c #232020",
"W 	c #272524",
"X 	c #242223",
"Y 	c #312D2C",
"Z 	c #2F2F30",
"` 	c #555E64",
" .	c #2B333C",
"..	c #272A2E",
"+.	c #18191A",
"@.	c #1E1F21",
"#.	c #202225",
"$.	c #1A1A1B",
"%.	c #1E1E21",
"&.	c #37393B",
"*.	c #2E3034",
"=.	c #25272B",
"-.	c #2E3236",
";.	c #2E353F",
">.	c #3C4756",
",.	c #A0ABAA",
"'.	c #A28F71",
").	c #1F1B1A",
"!.	c #312E2C",
"~.	c #282524",
"{.	c #262422",
"].	c #34312E",
"^.	c #201E1E",
"/.	c #81725D",
"(.	c #C2CBC8",
"_.	c #44505E",
":.	c #2D333B",
"<.	c #24282D",
"[.	c #202326",
"}.	c #32363D",
"|.	c #1E1F22",
"1.	c #3D3C3B",
"2.	c #3D3E40",
"3.	c #2F3237",
"4.	c #52687C",
"5.	c #A6C1D0",
"6.	c #B8B6A2",
"7.	c #554539",
"8.	c #221E1D",
"9.	c #1B1B1B",
"0.	c #161416",
"a.	c #181618",
"b.	c #1A1819",
"c.	c #201F20",
"d.	c #232122",
"e.	c #79654E",
"f.	c #CFCEBB",
"g.	c #9BB9CB",
"h.	c #4E667E",
"i.	c #2A2F37",
"j.	c #383A3F",
"k.	c #3D3F41",
"l.	c #323130",
"m.	c #414244",
"n.	c #465564",
"o.	c #C4DAE3",
"p.	c #F6E4C1",
"q.	c #674D38",
"r.	c #1B1718",
"s.	c #191718",
"t.	c #1D1C1D",
"u.	c #1F1F1F",
"v.	c #1F1F20",
"w.	c #201F1F",
"x.	c #2C2A2C",
"y.	c #977859",
"z.	c #FCF2D5",
"A.	c #D9ECF0",
"B.	c #495D72",
"C.	c #444648",
"D.	c #3C3D3F",
"E.	c #212022",
"F.	c #606F7B",
"G.	c #A2BAC1",
"H.	c #F4E4B8",
"I.	c #6E503B",
"J.	c #373635",
"K.	c #1F1B1B",
"L.	c #1D1C1E",
"M.	c #363637",
"N.	c #433C38",
"O.	c #78543A",
"P.	c #F4DEB4",
"Q.	c #9FBFCF",
"R.	c #6A7D8B",
"S.	c #303336",
"T.	c #737872",
"U.	c #D6AE78",
"V.	c #75482D",
"W.	c #27201F",
"X.	c #2B2624",
"Y.	c #33302D",
"Z.	c #2E2926",
"`.	c #191617",
" +	c #161517",
".+	c #232224",
"++	c #292422",
"@+	c #201C1B",
"#+	c #292423",
"$+	c #8A5D3C",
"%+	c #ECD2A2",
"&+	c #AFB3A0",
"*+	c #4C3427",
"=+	c #171315",
"-+	c #1B1717",
";+	c #2C2421",
">+	c #362F29",
",+	c #2D2B29",
"'+	c #2E2D2B",
")+	c #2C2928",
"!+	c #262221",
"~+	c #1A1718",
"{+	c #241C1B",
"]+	c #533728",
"^+	c #1C1818",
"/+	c #1B1A1A",
"(+	c #141113",
"_+	c #171415",
":+	c #1B1919",
"<+	c #151214",
"[+	c #1B1818",
"}+	c #1C191A",
"|+	c #1C1A1A",
"1+	c #131112",
"2+	c #161315",
"3+	c #171416",
"4+	c #151113",
"5+	c #181516",
"6+	c #161314",
"                  . + @ # $ .                   ",
"            $ + % & * * = - % @ . ;             ",
"          > & , * ' > @ > > ) - ! > ~           ",
"        ' - { & ) ' ' ' > ' ) ) ! % ] ^         ",
"      % ! / = ( _ : < [ * _ , } ! | > + ^       ",
"    1 ! ! 1 1 * 2 ' ' ) ) ! = 3 [ = ! ) ) )     ",
"  ' = - & = = ! ' > > 4 2 ! ) | ) , [ & ) ! )   ",
"  5 { , { 6 2 ! ' 7 8 9 0 a b ' ( { / & ! - {   ",
"  c d / & = - e f g { { h i j k 2 { & = * { k   ",
"l m - & & - % = n o ' ) ! p q r k { & & 1 ( / ! ",
"5 s _ = & ! ! 1 t 5 h u v w x y & { - ) ! d m 2 ",
"z z A * * = * ) b d B C C 5 - A / [ = 2 ( A k & ",
"z D E x k { [ & { c k F G * H x I J { & < I K c ",
"L M N O P Q R S T U V W X Y Z `  ...y +.[ @.#.$.",
"%.&.*.=.-.;.>.,.'.).!.~.{.].^./.(._.:.<.[...}.|.",
"  1.2.3.4.5.6.7.8.9.6 0.a.b.c.d.e.f.g.h.i.j.k.  ",
"  l.m.n.o.p.q.r.s.B t.b.u.v.$.w.x.y.z.A.B.C.D.  ",
"  E.F.G.H.I.J.c.d K.v v b.s.v L.M.N.O.P.Q.R.S.  ",
"    T.U.V.W.X.Y.Y.Z.`.! -  +.+l.++@+#+$+%+&+    ",
"      *+r.=+K.-+;+>+,+'+)+)+!+s.k B ~+{+]+      ",
"        d p 6 C ^+=+1 c s.`.A b./+d d ~+        ",
"          (+1 _+~+:+_+<+[+}+|+b.- p <+          ",
"            1+2+3+5 |+s.C s.c * = l             ",
"                  4+5+6+d _+l                   "};
