/* XPM */
static char * lemp3_yellow_12_xpm[] = {
"12 12 66 1",
" 	c None",
".	c #382F2E",
"+	c #928B8C",
"@	c #C4B9BA",
"#	c #C2B6B7",
"$	c #918A89",
"%	c #918382",
"&	c #FCF8FA",
"*	c #FEFDFD",
"=	c #FEFEFE",
"-	c #FBF2EF",
";	c #8D7B72",
">	c #8F8280",
",	c #FEFCFC",
"'	c #FEF5F6",
")	c #89746F",
"!	c #312522",
"~	c #FBF9F8",
"{	c #FAE3CE",
"]	c #8E8281",
"^	c #FEF9F1",
"/	c #FEF9F0",
"(	c #FDFBFB",
"_	c #F7B99C",
":	c #E8946B",
"<	c #765637",
"[	c #C0ACA7",
"}	c #FEF8F7",
"|	c #FEFAFA",
"1	c #FEFCFD",
"2	c #FDEFDE",
"3	c #F79470",
"4	c #EB8865",
"5	c #B3855A",
"6	c #BBA7A3",
"7	c #FDF6F2",
"8	c #FDFAF4",
"9	c #FEF4F3",
"0	c #FEF8F5",
"a	c #B99E92",
"b	c #7A6B59",
"c	c #DDA486",
"d	c #D53E15",
"e	c #FBCBAB",
"f	c #FEF7F5",
"g	c #FDF9F5",
"h	c #8F7964",
"i	c #DA5C24",
"j	c #F2BEA5",
"k	c #FEFDFC",
"l	c #FCE5C7",
"m	c #3C2C22",
"n	c #967E69",
"o	c #FEFAFB",
"p	c #FEF6F1",
"q	c #A08677",
"r	c #A69693",
"s	c #FEF8FA",
"t	c #FBD6B7",
"u	c #A38871",
"v	c #4F4441",
"w	c #B2A5A2",
"x	c #DFD0C7",
"y	c #DECCC0",
"z	c #B19480",
"A	c #483121",
"   .+@#$    ",
"  %&*==*-;  ",
" >,======') ",
"!~=======*{ ",
"]*===^/=(_:<",
"[====}|12345",
"6,78*190=*1a",
"bcde=*f*==gh",
" ijk======lm",
" no======pq ",
"  rs*==,tu  ",
"   vwxyzA   "};
