/* XPM */
static char * lemp1_yellow_12_xpm[] = {
"12 12 115 2",
"  	c None",
". 	c #5D0D00",
"+ 	c #A32100",
"@ 	c #821800",
"# 	c #4E0900",
"$ 	c #5B0D00",
"% 	c #C33800",
"& 	c #F56200",
"* 	c #FD8200",
"= 	c #FB6F00",
"- 	c #F76600",
"; 	c #D13800",
"> 	c #380600",
", 	c #5E0B00",
"' 	c #ED5D00",
") 	c #FD8800",
"! 	c #FD9204",
"~ 	c #FEB73B",
"{ 	c #FEB23E",
"] 	c #FD9B0A",
"^ 	c #FA6D00",
"/ 	c #D14405",
"( 	c #3A0800",
"_ 	c #170200",
": 	c #C43300",
"< 	c #FEB73A",
"[ 	c #FEF0BD",
"} 	c #FED568",
"| 	c #FED876",
"1 	c #FEEAAC",
"2 	c #FDA634",
"3 	c #F4670A",
"4 	c #8E1000",
"5 	c #0A0000",
"6 	c #3F0600",
"7 	c #EE4A00",
"8 	c #FD8408",
"9 	c #FEEBAD",
"0 	c #FED758",
"a 	c #F6A265",
"b 	c #F0995E",
"c 	c #FED96F",
"d 	c #FED07A",
"e 	c #DC2D00",
"f 	c #B51800",
"g 	c #1B0200",
"h 	c #550800",
"i 	c #CB1E00",
"j 	c #DD480B",
"k 	c #FDB22B",
"l 	c #FDC252",
"m 	c #EF4600",
"n 	c #F14E00",
"o 	c #F7881A",
"p 	c #E45C0E",
"q 	c #621000",
"r 	c #2B0300",
"s 	c #140100",
"t 	c #250200",
"u 	c #3F0400",
"v 	c #420800",
"w 	c #BC2B00",
"x 	c #F76A02",
"y 	c #E23500",
"z 	c #DF3400",
"A 	c #F06403",
"B 	c #FDA732",
"C 	c #C34D20",
"D 	c #630B00",
"E 	c #1C0100",
"F 	c #070000",
"G 	c #150100",
"H 	c #710C00",
"I 	c #FCB34E",
"J 	c #FEC738",
"K 	c #F68015",
"L 	c #EB5404",
"M 	c #F9BB71",
"N 	c #FEECB3",
"O 	c #FC7D08",
"P 	c #DD3800",
"Q 	c #0B0000",
"R 	c #750E00",
"S 	c #EE3B00",
"T 	c #FD972C",
"U 	c #FEEBB2",
"V 	c #FEEFAC",
"W 	c #FEECA6",
"X 	c #FEF2C3",
"Y 	c #FDB043",
"Z 	c #FC6E00",
"` 	c #9D1B00",
" .	c #100100",
"..	c #350400",
"+.	c #CE3E00",
"@.	c #FD990E",
"#.	c #FEBD4F",
"$.	c #FEC256",
"%.	c #FD9812",
"&.	c #FD8100",
"*.	c #C33300",
"=.	c #320400",
"-.	c #3C0600",
";.	c #BE3D00",
">.	c #F67100",
",.	c #FD8400",
"'.	c #FB7D00",
").	c #E37006",
"!.	c #9A2B00",
"~.	c #330400",
"{.	c #1E0300",
"].	c #360600",
"^.	c #550A00",
"/.	c #2E0700",
"(.	c #0E0100",
"        . + @ #         ",
"    $ % & * = - ; >     ",
"  , ' ) ! ~ { ] ^ / (   ",
"_ : * < [ } | 1 2 3 4 5 ",
"6 7 8 9 0 a b c d e f g ",
"h i j k l m n o p q r s ",
"t u v w x y z A B C D E ",
"F G H I J K L M N O P r ",
"Q R S T U V W X Y Z `  .",
"  ..+.* @.#.$.%.&.*.=.  ",
"    -.;.>.,.'.).!.~.    ",
"      {.].. ^./.(.      "};
