/* XPM */
static char * lemp1_yellow_24_xpm[] = {
"24 24 403 2",
"  	c None",
". 	c #400800",
"+ 	c #711100",
"@ 	c #721300",
"# 	c #560B00",
"$ 	c #340600",
"% 	c #230400",
"& 	c #500900",
"* 	c #7F0C00",
"= 	c #B62300",
"- 	c #CE2A00",
"; 	c #DD3900",
"> 	c #D03000",
", 	c #AF1F00",
"' 	c #8F1300",
") 	c #890F00",
"! 	c #670C00",
"~ 	c #4F0800",
"{ 	c #700D00",
"] 	c #B41E00",
"^ 	c #E63200",
"/ 	c #FA7200",
"( 	c #FD8100",
"_ 	c #FD8500",
": 	c #FC7000",
"< 	c #F95A00",
"[ 	c #F44D00",
"} 	c #EF4F00",
"| 	c #D12D00",
"1 	c #941200",
"2 	c #310500",
"3 	c #720C00",
"4 	c #AD2200",
"5 	c #F04E00",
"6 	c #FB6900",
"7 	c #FA6300",
"8 	c #FD8200",
"9 	c #FE8300",
"0 	c #FD7800",
"a 	c #FD7B00",
"b 	c #FD8400",
"c 	c #FC7A00",
"d 	c #FA6900",
"e 	c #E63800",
"f 	c #841200",
"g 	c #2E0400",
"h 	c #790D00",
"i 	c #FA7400",
"j 	c #FD8000",
"k 	c #FE8F00",
"l 	c #FE8E00",
"m 	c #FE8D00",
"n 	c #FEA000",
"o 	c #FE9400",
"p 	c #FE8700",
"q 	c #FD8600",
"r 	c #FD8700",
"s 	c #F96100",
"t 	c #E83E00",
"u 	c #780E00",
"v 	c #541000",
"w 	c #4E0700",
"x 	c #B11800",
"y 	c #F24E00",
"z 	c #FD8800",
"A 	c #FE8600",
"B 	c #FE8D01",
"C 	c #FEB510",
"D 	c #FECC58",
"E 	c #FEE395",
"F 	c #FEDE91",
"G 	c #FED067",
"H 	c #FEBB28",
"I 	c #FE9700",
"J 	c #FD7D00",
"K 	c #F65200",
"L 	c #F23F00",
"M 	c #F48515",
"N 	c #731000",
"O 	c #230300",
"P 	c #1C0200",
"Q 	c #770B00",
"R 	c #F04900",
"S 	c #FE7E00",
"T 	c #FE9100",
"U 	c #FE9000",
"V 	c #FEB41A",
"W 	c #FEEDB4",
"X 	c #FEFCF4",
"Y 	c #FEF2C5",
"Z 	c #FEEFB4",
"` 	c #FEE9A7",
" .	c #FFF3CB",
"..	c #FFFDF9",
"+.	c #FEDF95",
"@.	c #FE980E",
"#.	c #FC6B00",
"$.	c #FD9B0E",
"%.	c #F36918",
"&.	c #B01400",
"*.	c #4B0600",
"=.	c #0E0100",
"-.	c #430600",
";.	c #B01900",
">.	c #FA5F00",
",.	c #FE7F00",
"'.	c #FEA90F",
").	c #FEF0C2",
"!.	c #FEFBE8",
"~.	c #FEDF65",
"{.	c #FEB106",
"].	c #FEC221",
"^.	c #FEC748",
"/.	c #FEBE21",
"(.	c #FED752",
"_.	c #FEF5D2",
":.	c #FEE7B1",
"<.	c #FEB012",
"[.	c #F76704",
"}.	c #EB3400",
"|.	c #D72000",
"1.	c #660900",
"2.	c #1D0200",
"3.	c #720B00",
"4.	c #DD2F00",
"5.	c #FC7100",
"6.	c #FD7600",
"7.	c #FE8800",
"8.	c #FEDD83",
"9.	c #FEFBE9",
"0.	c #FED554",
"a.	c #FED334",
"b.	c #FEEFB6",
"c.	c #FEE8B6",
"d.	c #FEDF97",
"e.	c #FEF2C4",
"f.	c #FEE688",
"g.	c #FEC626",
"h.	c #FFEFC0",
"i.	c #FEC668",
"j.	c #E52900",
"k.	c #DF2700",
"l.	c #991100",
"m.	c #2D0400",
"n.	c #190200",
"o.	c #710B00",
"p.	c #E83100",
"q.	c #F95800",
"r.	c #FB6B00",
"s.	c #FEAA22",
"t.	c #FEFAED",
"u.	c #FEDC5E",
"v.	c #FEC736",
"w.	c #FEEDA4",
"x.	c #F98929",
"y.	c #E52A00",
"z.	c #D82300",
"A.	c #ED701D",
"B.	c #FEE19B",
"C.	c #FEDA75",
"D.	c #FEA515",
"E.	c #FEE7AD",
"F.	c #E93A00",
"G.	c #B31200",
"H.	c #C11800",
"I.	c #9D1100",
"J.	c #340400",
"K.	c #0C0000",
"L.	c #240300",
"M.	c #810E00",
"N.	c #DC2700",
"O.	c #E52E00",
"P.	c #F9811E",
"Q.	c #FEE285",
"R.	c #FEB50B",
"S.	c #FEEEAA",
"T.	c #FECE5B",
"U.	c #EF4000",
"V.	c #E02700",
"W.	c #E92C00",
"X.	c #E82B00",
"Y.	c #FB8D0B",
"Z.	c #FEDC5F",
"`.	c #FA7D01",
" +	c #F99537",
".+	c #B62C00",
"++	c #530700",
"@+	c #4C0600",
"#+	c #250200",
"$+	c #0C0100",
"%+	c #320400",
"&+	c #7F0D00",
"*+	c #CA1900",
"=+	c #AC1200",
"-+	c #AA1000",
";+	c #EC630F",
">+	c #FEAD1F",
",+	c #FEC83B",
"'+	c #FC8508",
")+	c #F43C00",
"!+	c #FB7600",
"~+	c #FD8B02",
"{+	c #F85900",
"]+	c #E73200",
"^+	c #E34600",
"/+	c #BB1800",
"(+	c #670F00",
"_+	c #1A0100",
":+	c #0D0000",
"<+	c #080000",
"[+	c #0F0000",
"}+	c #120100",
"|+	c #240200",
"1+	c #480500",
"2+	c #860C00",
"3+	c #5A0600",
"4+	c #510500",
"5+	c #8D1B00",
"6+	c #C93300",
"7+	c #C51F00",
"8+	c #FA5900",
"9+	c #E93000",
"0+	c #D81D00",
"a+	c #F96400",
"b+	c #F96600",
"c+	c #F43F00",
"d+	c #F54C00",
"e+	c #FE9B02",
"f+	c #FE9A02",
"g+	c #FC771D",
"h+	c #D56A36",
"i+	c #5F0700",
"j+	c #310300",
"k+	c #120000",
"l+	c #140100",
"m+	c #170100",
"n+	c #150100",
"o+	c #110000",
"p+	c #0B0000",
"q+	c #1B0100",
"r+	c #881400",
"s+	c #DB4700",
"t+	c #FEA309",
"u+	c #FD7F00",
"v+	c #EF3C00",
"w+	c #CB1900",
"x+	c #C91800",
"y+	c #C71500",
"z+	c #D11F00",
"A+	c #FC8A0D",
"B+	c #FECB40",
"C+	c #FEC36B",
"D+	c #FC9C4A",
"E+	c #DE2700",
"F+	c #CC1C00",
"G+	c #2A0300",
"H+	c #0A0000",
"I+	c #070000",
"J+	c #040000",
"K+	c #090000",
"L+	c #1D0100",
"M+	c #620900",
"N+	c #F8A231",
"O+	c #FD940C",
"P+	c #FEC831",
"Q+	c #FEB41C",
"R+	c #F86700",
"S+	c #E63300",
"T+	c #DD2700",
"U+	c #D82200",
"V+	c #EB4802",
"W+	c #FED686",
"X+	c #FEE283",
"Y+	c #FEF5DE",
"Z+	c #FEA621",
"`+	c #FB6600",
" @	c #F75600",
".@	c #D02800",
"+@	c #1C0300",
"@@	c #0E0000",
"#@	c #3C0400",
"$@	c #7E0C00",
"%@	c #C71C00",
"&@	c #FDAA3C",
"*@	c #FEEFC2",
"=@	c #FEBA20",
"-@	c #FEE875",
";@	c #FECD47",
">@	c #FE9B0D",
",@	c #FC8711",
"'@	c #FEDB8C",
")@	c #FFF3B2",
"!@	c #FFF5C5",
"~@	c #FEE7A8",
"{@	c #FC6300",
"]@	c #F74C00",
"^@	c #B81700",
"/@	c #420500",
"(@	c #160100",
"_@	c #B31B00",
":@	c #DF2800",
"<@	c #EE3500",
"[@	c #FD8203",
"}@	c #FEE7A7",
"|@	c #FEF5D9",
"1@	c #FEDD63",
"2@	c #FEE682",
"3@	c #FEF1B3",
"4@	c #FEEBA8",
"5@	c #FEECA8",
"6@	c #FEE98E",
"7@	c #FFF6D1",
"8@	c #FEF5D7",
"9@	c #FEA216",
"0@	c #FD7200",
"a@	c #FC6600",
"b@	c #EC3A00",
"c@	c #830C00",
"d@	c #2C0300",
"e@	c #170200",
"f@	c #3B0400",
"g@	c #B61900",
"h@	c #F44400",
"i@	c #F74E00",
"j@	c #FB6400",
"k@	c #FE9207",
"l@	c #FEDD93",
"m@	c #FEFEFA",
"n@	c #FEF6D8",
"o@	c #FEEFA4",
"p@	c #FEED98",
"q@	c #FFEEB3",
"r@	c #FFFCF3",
"s@	c #FFEFBB",
"t@	c #FEB21F",
"u@	c #FD7700",
"v@	c #FE8000",
"w@	c #F96200",
"x@	c #C62100",
"y@	c #410500",
"z@	c #6E0B00",
"A@	c #E13800",
"B@	c #FC7600",
"C@	c #FE8B00",
"D@	c #FE8C01",
"E@	c #FECD39",
"F@	c #FEDF8A",
"G@	c #FEEDB2",
"H@	c #FEECB5",
"I@	c #FFEAA3",
"J@	c #FEC846",
"K@	c #FE9704",
"L@	c #FE8C00",
"M@	c #FB6C00",
"N@	c #DE3600",
"O@	c #280300",
"P@	c #7D0E00",
"Q@	c #E03C00",
"R@	c #FC7800",
"S@	c #FD7C00",
"T@	c #FE9200",
"U@	c #FEA401",
"V@	c #FE9300",
"W@	c #FD7100",
"X@	c #FD7500",
"Y@	c #6E0A00",
"Z@	c #350400",
"`@	c #7A0D00",
" #	c #EA4C00",
".#	c #FD8300",
"+#	c #FD8B01",
"@#	c #FEA008",
"##	c #FC7400",
"$#	c #F96D00",
"%#	c #CD2F00",
"&#	c #680B00",
"*#	c #330400",
"=#	c #430700",
"-#	c #5F0900",
";#	c #B52000",
">#	c #E64300",
",#	c #F97000",
"'#	c #FC7700",
")#	c #F97702",
"!#	c #F49310",
"~#	c #A01B00",
"{#	c #6B0C00",
"]#	c #380400",
"^#	c #300500",
"/#	c #4A0700",
"(#	c #841300",
"_#	c #941C00",
":#	c #851300",
"<#	c #6A0C00",
"[#	c #610F00",
"}#	c #200200",
"|#	c #1F0200",
"1#	c #1F0300",
"2#	c #270300",
"3#	c #370400",
"4#	c #360400",
"5#	c #2F0500",
"6#	c #390E00",
"                  . + @ # $ %                   ",
"              & * = - ; > , ' ) !               ",
"          ~ { ] ^ / ( _ : < [ } | 1 2           ",
"        3 4 5 6 7 ( 8 9 0 a b c d e f g         ",
"      h - i j k a l m n o p o q r s t u v       ",
"    w x y z A m B C D E F G H I J K L M N O     ",
"  P Q R S T U V W X Y Z `  ...+.@.#.$.%.&.*.=.  ",
"  -.;.>.a ,.'.).!.~.{.].^./.(._.:.<.[.}.|.1.2.  ",
"  3.4.5.6.7.8.9.0.a.b.c.d.e.f.g.h.i.L j.k.l.m.  ",
"n.o.p.q.r.s.t.u.v.w.x.y.z.A.B.C.D.E.F.G.H.I.J.K.",
"L.M.N.N.O.P.Q.R.S.T.U.V.W.X.Y.Z.`. +.+++@+w #+$+",
"%+&+*+=+-+;+>+_ ,+'+)+!+~+{+]+r ^+/+(+_+:+<+[+}+",
"|+1+2+3+4+5+6+7+8+9+0+a+b+c+d+e+f+g+h+i+j+k+l+m+",
"l+n+o+p+[+q+r+s+t+u+v+w+x+y+z+A+B+C+D+E+F+&+G+P ",
"H+I+J+K+L+M+N+O+P+Q+R+S+T+U+V+W+X+Y+Z+`+ @.@w +@",
"  p+@@#@$@%@&@*@=@-@;@>@8 ,@'@)@!@~@p {@]@^@/@  ",
"  (@j+_@:@<@[@}@|@1@2@3@4@5@6@7@8@9@0@a@b@c@d@  ",
"  e@f@g@h@i@j@k@l@m@n@o@p@q@r@s@t@u@v@w@x@y@l+  ",
"    J.z@A@B@,.C@D@E@F@G@H@I@J@K@L@,.M@N@3.O@    ",
"      J.P@Q@R@q S@T@T I k U@V@W@A X@x@Y@g       ",
"        Z@`@ #8 .#T p L@a +#@###$#%#&#*#        ",
"          =#-#;#>#,#c q '#)#!#~#{#]#*#          ",
"            ^#/#*.+ (#_#:#<#[#}#|#n.            ",
"                  1#2#3#4#5#6#                  "};
