/* XPM */
static char * lemp3_yellow_24_xpm[] = {
"24 24 175 2",
"  	c None",
". 	c #58464A",
"+ 	c #847879",
"@ 	c #937D79",
"# 	c #927B77",
"$ 	c #7B6A6E",
"% 	c #51403D",
"& 	c #332120",
"* 	c #AF9D9B",
"= 	c #F5EDEE",
"- 	c #FEFBFA",
"; 	c #FEF9FC",
"> 	c #FEF8FA",
", 	c #FEFAFB",
"' 	c #FEFDFD",
") 	c #F5EBEC",
"! 	c #A48D8B",
"~ 	c #89716F",
"{ 	c #F8EEF2",
"] 	c #FEFCFD",
"^ 	c #FEFEFE",
"/ 	c #FEFBFC",
"( 	c #F5DCD2",
"_ 	c #836862",
": 	c #BDA8A7",
"< 	c #FEF4F5",
"[ 	c #FEFBFD",
"} 	c #FEF6F4",
"| 	c #FDEAD1",
"1 	c #B79A95",
"2 	c #BBA6A2",
"3 	c #FEF8FB",
"4 	c #FEFBFB",
"5 	c #FEE3E4",
"6 	c #B49598",
"7 	c #846764",
"8 	c #FDFBFD",
"9 	c #FEFAFC",
"0 	c #FDE4D1",
"a 	c #755755",
"b 	c #2B1610",
"c 	c #F5EDEB",
"d 	c #FDEDE2",
"e 	c #F2CCAC",
"f 	c #9C7E79",
"g 	c #FEF8F9",
"h 	c #FDDDB3",
"i 	c #89655C",
"j 	c #F1E0DD",
"k 	c #FEF5F5",
"l 	c #FDF3E8",
"m 	c #FDDCAA",
"n 	c #E1A977",
"o 	c #4A342E",
"p 	c #FDF5FB",
"q 	c #FEF9F9",
"r 	c #FEEFD0",
"s 	c #FEEECE",
"t 	c #FEFBF9",
"u 	c #FDF8F5",
"v 	c #FAA166",
"w 	c #E7541D",
"x 	c #C2390F",
"y 	c #E74B0B",
"z 	c #F8B068",
"A 	c #7A5F55",
"B 	c #FEF3F5",
"C 	c #FEF4EE",
"D 	c #FEF5F4",
"E 	c #FEF9FA",
"F 	c #FDEBD1",
"G 	c #FDDAAF",
"H 	c #F54F11",
"I 	c #EE2E01",
"J 	c #CD2402",
"K 	c #E83B03",
"L 	c #F9AC4E",
"M 	c #5C423D",
"N 	c #8A736B",
"O 	c #FEEEEA",
"P 	c #FDF3E9",
"Q 	c #FDE0C8",
"R 	c #FDE5D6",
"S 	c #FDDDBA",
"T 	c #FDD18F",
"U 	c #7D5750",
"V 	c #87736A",
"W 	c #FEEAE5",
"X 	c #FEFAFD",
"Y 	c #FEF8F6",
"Z 	c #FEE7D4",
"` 	c #7C5750",
" .	c #6B544C",
"..	c #FEECF2",
"+.	c #FEFCFC",
"@.	c #FDECD6",
"#.	c #FEFCFA",
"$.	c #FDF0DD",
"%.	c #FEF0ED",
"&.	c #FEECE6",
"*.	c #FEF0E7",
"=.	c #FEE9DA",
"-.	c #6F514B",
";.	c #FDE4C6",
">.	c #FDE6D0",
",.	c #F4894E",
"'.	c #E94008",
").	c #F98647",
"!.	c #FDEFDD",
"~.	c #FEF1ED",
"{.	c #FEF0EB",
"].	c #FEFAFA",
"^.	c #FDE6C7",
"/.	c #4A2E23",
"(.	c #EBC9A1",
"_.	c #F5934C",
":.	c #851F05",
"<.	c #8D0800",
"[.	c #EC2A01",
"}.	c #FBBA8D",
"|.	c #FDEEDF",
"1.	c #F8D2A7",
"2.	c #906A4E",
"3.	c #EE4909",
"4.	c #961100",
"5.	c #D24E24",
"6.	c #FBBB8D",
"7.	c #FEFAF6",
"8.	c #FDDDAE",
"9.	c #B38C71",
"0.	c #F19D57",
"a.	c #F57932",
"b.	c #FDF2E9",
"c.	c #FDEFDE",
"d.	c #FACF96",
"e.	c #3D241A",
"f.	c #8C6F5E",
"g.	c #FCCD99",
"h.	c #FEE2C5",
"i.	c #A77D66",
"j.	c #D3BDAF",
"k.	c #FEF4F9",
"l.	c #FEE5D2",
"m.	c #DDBAB2",
"n.	c #DFC8C6",
"o.	c #FEF1F0",
"p.	c #FDF1EA",
"q.	c #FDE2B8",
"r.	c #DCB49D",
"s.	c #BBA198",
"t.	c #FEF1F4",
"u.	c #FEF7F9",
"v.	c #FEF8F8",
"w.	c #FBD1A9",
"x.	c #F79B4C",
"y.	c #B38D72",
"z.	c #644D43",
"A.	c #DAC5C1",
"B.	c #FDF4F8",
"C.	c #FEF7F8",
"D.	c #FEF9F8",
"E.	c #FDF7F6",
"F.	c #FEF6F9",
"G.	c #FEEEE6",
"H.	c #FDD29B",
"I.	c #D19362",
"J.	c #4F3322",
"K.	c #403129",
"L.	c #8D7970",
"M.	c #B19E97",
"N.	c #D2B292",
"O.	c #D0AC8A",
"P.	c #AF9888",
"Q.	c #866A63",
"R.	c #45281E",
"                  . + @ # $ %                   ",
"            & * = - ; > ; , ' ) !               ",
"          ~ { ] ' ^ ^ ^ ^ ^ ^ / > ( _           ",
"        : < [ ^ ^ ^ ^ ^ ^ ^ ^ ^ ^ } | 1         ",
"      2 3 ' ^ ^ ^ ^ ^ ^ ^ ^ ^ ^ ^ ^ 4 5 6       ",
"    7 8 ' ^ ^ ^ ^ ^ ^ ^ ^ ^ ^ ^ ^ ^ ' 9 0 a     ",
"  b c ' ^ ^ ^ ^ ^ ^ ^ ^ ^ ^ ^ ^ ^ ^ ' ^ d e     ",
"  f ] ^ ^ ^ ^ ^ ^ ^ ^ ^ ^ ^ ^ ^ ^ ^ ^ ] g h i   ",
"  j ' ^ ^ ^ ^ ^ ^ ^ ^ ^ ^ ^ ^ ^ ^ ^ , k l m n   ",
"o p ' ^ ^ ^ ^ ^ ^ ^ q r s t ^ ^ 4 u v w x y z   ",
"A B ^ ^ ^ ^ ^ ^ ^ ^ < C D E ] ^ F G H I J K L M ",
"N O ^ ^ ^ ^ ^ ^ ^ ^ ] ' ^ ] [ ^ ^ ] P Q R S T U ",
"V W ' ' X ' ^ ^ ^ ' [ ' ' ; Y ' ^ ^ ^ ' ' ] Z ` ",
" ...[ +.g @.#.$.' ' ] ] %.&.*.' ^ ^ ^ ^ ^ ] =.-.",
"  ;.g >.,.'.).!.^ ^ ^ ] ~.{.9 ^ ^ ^ ^ ^ ^ ].^./.",
"  (._.:.<.[.}.^ ^ ^ ^ ^ ^ ^ ^ ^ ^ ^ ^ ^ ^ |.1.  ",
"  2.3.4.5.6.7.^ ^ ^ ^ ^ ^ ^ ^ ^ ^ ^ ^ ^ [ 8.9.  ",
"    0.a.b.' ^ ^ ^ ^ ^ ^ ^ ^ ^ ^ ^ ^ ^ ^ c.d.e.  ",
"    f.g.q ^ ^ ^ ^ ^ ^ ^ ^ ^ ^ ^ ^ ^ ^ [ h.i.    ",
"      j.k.' ^ ^ ^ ^ ^ ^ ^ ^ ^ ^ ^ ^ - l.m.      ",
"        n.o.] ^ ^ ^ ^ ^ ^ ^ ^ ^ ' p.q.r.        ",
"          s.t.u.' ^ ^ ^ ^ ^ ' v.w.x.y.          ",
"            z.A.B.C., D.E.F.G.H.I.J.            ",
"                K.L.M.N.O.P.Q.R.                "};
