/* XPM */
static char * lemp2_yellow_12_xpm[] = {
"12 12 109 2",
"  	c None",
". 	c #6C4603",
"+ 	c #9A5B01",
"@ 	c #985A02",
"# 	c #674003",
"$ 	c #663600",
"% 	c #F3B034",
"& 	c #FEE7A3",
"* 	c #FEF1B4",
"= 	c #FEF1BE",
"- 	c #FDDF91",
"; 	c #E97D11",
"> 	c #5A2A04",
", 	c #663200",
"' 	c #FDC65F",
") 	c #FEF1B2",
"! 	c #FFF9E6",
"~ 	c #FEFAE2",
"{ 	c #FEFCF6",
"] 	c #FEF7D9",
"^ 	c #FEE99B",
"/ 	c #F98205",
"( 	c #491300",
"_ 	c #F2A92B",
": 	c #FEF9E4",
"< 	c #FFFCF4",
"[ 	c #FFFEFC",
"} 	c #FEFEFB",
"| 	c #FEFEFD",
"1 	c #FEFDFD",
"2 	c #FED874",
"3 	c #FEAF0C",
"4 	c #DF4B00",
"5 	c #6C2E00",
"6 	c #FECE5B",
"7 	c #FEFAE4",
"8 	c #FFFEFE",
"9 	c #FFFEFB",
"0 	c #FEE2B0",
"a 	c #FEE8C1",
"b 	c #FEFCF5",
"c 	c #FBD084",
"d 	c #B64100",
"e 	c #8B1D00",
"f 	c #481000",
"g 	c #A24A00",
"h 	c #FEE07A",
"i 	c #FEF2BE",
"j 	c #FEFBEA",
"k 	c #FEBA22",
"l 	c #FEC847",
"m 	c #FEE9AC",
"n 	c #FABD78",
"o 	c #D06012",
"p 	c #B74803",
"q 	c #6F2000",
"r 	c #8E3100",
"s 	c #FEA50B",
"t 	c #FDA118",
"u 	c #FEDB91",
"v 	c #FEE28F",
"w 	c #FEBE31",
"x 	c #FEAB1E",
"y 	c #FEC55A",
"z 	c #FEFDFA",
"A 	c #FEE893",
"B 	c #FDC139",
"C 	c #8D3000",
"D 	c #651D00",
"E 	c #CD4A00",
"F 	c #731400",
"G 	c #DC7536",
"H 	c #FEF7E2",
"I 	c #FEEDB0",
"J 	c #FED27C",
"K 	c #FEF5DD",
"L 	c #FEF1B3",
"M 	c #FCA62A",
"N 	c #682200",
"O 	c #520B00",
"P 	c #AA3E00",
"Q 	c #FDC454",
"R 	c #FEFEFE",
"S 	c #FEF9E3",
"T 	c #FEEBA2",
"U 	c #EC6608",
"V 	c #571600",
"W 	c #FB8D0E",
"X 	c #FEEEA8",
"Y 	c #FFF7D9",
"Z 	c #FEFCF3",
"` 	c #FEFBEE",
" .	c #FEFAE5",
"..	c #FEE48A",
"+.	c #FA9A37",
"@.	c #813900",
"#.	c #F99B1C",
"$.	c #FEE3A7",
"%.	c #FEF6D5",
"&.	c #FEF2C8",
"*.	c #FDCF7F",
"=.	c #DF6123",
"-.	c #731F00",
";.	c #2D1500",
">.	c #894401",
",.	c #B65501",
"'.	c #B24A00",
").	c #812F00",
"!.	c #230E02",
"        . + @ #         ",
"    $ % & * = - ; >     ",
"  , ' ) ! ~ { ] ^ / (   ",
"  _ : < [ } | 1 2 3 4   ",
"5 6 7 8 9 0 a b c d e f ",
"g h i [ j k l m n o p q ",
"r s t u v w x y z A B C ",
"D E F G H I J K | L M N ",
"  O P Q [ R R 1 S T U   ",
"  V W X Y Z `  ...+.q   ",
"    @.#.$.%.&.*.=.-.    ",
"      ;.>.,.'.).!.      "};
