/* XPM */
static char * lemp0_12_xpm[] = {
"12 12 89 1",
" 	c None",
".	c #070607",
"+	c #0C0B0C",
"@	c #121012",
"#	c #110F11",
"$	c #0B0A0B",
"%	c #060405",
"&	c #0D0B0D",
"*	c #151415",
"=	c #100E10",
"-	c #0E0D0E",
";	c #141214",
">	c #141314",
",	c #141315",
"'	c #131214",
")	c #151516",
"!	c #0D0B0C",
"~	c #0A090A",
"{	c #131113",
"]	c #121113",
"^	c #1C1B1D",
"/	c #1B1B1C",
"(	c #100F10",
"_	c #252526",
":	c #131213",
"<	c #1A1819",
"[	c #262526",
"}	c #0F0E10",
"|	c #1A191A",
"1	c #151416",
"2	c #1B1A1C",
"3	c #1C191A",
"4	c #1B1819",
"5	c #181719",
"6	c #151315",
"7	c #1F1F22",
"8	c #1B1C1E",
"9	c #19191B",
"0	c #1B1D20",
"a	c #2F3032",
"b	c #252323",
"c	c #232222",
"d	c #2D2F32",
"e	c #212428",
"f	c #171719",
"g	c #1A1A1C",
"h	c #242425",
"i	c #2F3135",
"j	c #556470",
"k	c #7A7B76",
"l	c #3F3830",
"m	c #211E1E",
"n	c #232020",
"o	c #39342F",
"p	c #93938B",
"q	c #4E5E6C",
"r	c #2A2D32",
"s	c #232528",
"t	c #141414",
"u	c #627079",
"v	c #C7BCA5",
"w	c #362E29",
"x	c #1B191A",
"y	c #1C1B1C",
"z	c #4F453D",
"A	c #D0C4AC",
"B	c #657785",
"C	c #1B1C1D",
"D	c #655644",
"E	c #33241E",
"F	c #262220",
"G	c #302B27",
"H	c #211F1F",
"I	c #201E1E",
"J	c #1F1C1C",
"K	c #3C2D24",
"L	c #7B6F5A",
"M	c #0F0D0E",
"N	c #171415",
"O	c #1A1617",
"P	c #161315",
"Q	c #1A1718",
"R	c #161415",
"S	c #110F10",
"T	c #0A0909",
"U	c #110E10",
"V	c #181617",
"W	c #181516",
"X	c #100E0F",
"   .+@#$%   ",
"  &*@==@@$  ",
" -;>>,')'#! ",
"~*>{]^/{>*{~",
"(>;{_:<[*>,}",
"|1;:23451{6*",
"7890abcdef9g",
"hijklmnopqrs",
"tuvw<xyyzABC",
" DEFGHIbJKL ",
"  MNOPQ<RS  ",
"   TUVWX~   "};
