/* XPM */
static char * lemp2_yellow_24_xpm[] = {
"24 24 358 2",
"  	c None",
". 	c #2C1C00",
"+ 	c #442500",
"@ 	c #3F2502",
"# 	c #271701",
"$ 	c #5D3C08",
"% 	c #BA750C",
"& 	c #F8A402",
"* 	c #FD8E00",
"= 	c #FD9E05",
"- 	c #FD9602",
"; 	c #FD9805",
"> 	c #F09B0A",
", 	c #AC6703",
"' 	c #462000",
") 	c #381D00",
"! 	c #D47B02",
"~ 	c #FEA810",
"{ 	c #FEC94F",
"] 	c #FEE179",
"^ 	c #FEEB94",
"/ 	c #FEEC92",
"( 	c #FEE993",
"_ 	c #FEE999",
": 	c #FEE48D",
"< 	c #FDB127",
"[ 	c #FB7700",
"} 	c #B84700",
"| 	c #2C1803",
"1 	c #693500",
"2 	c #F88700",
"3 	c #FEB51F",
"4 	c #FEEB9F",
"5 	c #FFF8DD",
"6 	c #FFFBE7",
"7 	c #FFF7D4",
"8 	c #FEF9D9",
"9 	c #FEFBEC",
"0 	c #FEF9E0",
"a 	c #FEFAE8",
"b 	c #FEEEA9",
"c 	c #FEC037",
"d 	c #F6790E",
"e 	c #EB6E0D",
"f 	c #532500",
"g 	c #683000",
"h 	c #FC8803",
"i 	c #FEC640",
"j 	c #FEEB93",
"k 	c #FFF5C3",
"l 	c #FFF7D8",
"m 	c #FFFCF0",
"n 	c #FFF7D0",
"o 	c #FEF7C8",
"p 	c #FEFBF1",
"q 	c #FEFAE6",
"r 	c #FEF5CA",
"s 	c #FEE167",
"t 	c #FEF2C8",
"u 	c #FC860D",
"v 	c #F15300",
"w 	c #4A1200",
"x 	c #391C02",
"y 	c #F77E00",
"z 	c #FED365",
"A 	c #FEF8D4",
"B 	c #FEF4C2",
"C 	c #FFF2B2",
"D 	c #FFF8DE",
"E 	c #FFFCF3",
"F 	c #FFFDF8",
"G 	c #FEFEFA",
"H 	c #FEFEFE",
"I 	c #FEFDFB",
"J 	c #FEFCF5",
"K 	c #FEF4C1",
"L 	c #FEF0B4",
"M 	c #FEE18B",
"N 	c #FEAB05",
"O 	c #FC8403",
"P 	c #DD3D00",
"Q 	c #D17400",
"R 	c #FEB82E",
"S 	c #FEF7D3",
"T 	c #FEFCF4",
"U 	c #FFFAE7",
"V 	c #FFFCF2",
"W 	c #FFFDFB",
"X 	c #FFFFFE",
"Y 	c #FFFFFF",
"Z 	c #FEFDFA",
"` 	c #FEF2D0",
" .	c #FEB713",
"..	c #FEC41D",
"+.	c #FE9D05",
"@.	c #F55600",
"#.	c #9E2800",
"$.	c #572600",
"%.	c #FE9602",
"&.	c #FEE27C",
"*.	c #FFF9DE",
"=.	c #FEFBEE",
"-.	c #FFFDFA",
";.	c #FFFEFF",
">.	c #FFFEFB",
",.	c #FFFEFA",
"'.	c #FEFDF8",
").	c #FEFEFC",
"!.	c #FEF3C9",
"~.	c #FEC424",
"{.	c #FEB006",
"].	c #FEAB08",
"^.	c #FC7300",
"/.	c #ED3C00",
"(.	c #B84C00",
"_.	c #FEA619",
":.	c #FEF1AA",
"<.	c #FFFBEA",
"[.	c #FFFEFE",
"}.	c #FFFDF5",
"|.	c #FEFCF3",
"1.	c #FEFEFB",
"2.	c #FEC440",
"3.	c #FD8300",
"4.	c #F46600",
"5.	c #E74B00",
"6.	c #C02200",
"7.	c #7B2000",
"8.	c #FA6F00",
"9.	c #FEB81E",
"0.	c #FEEA8D",
"a.	c #FFF6C6",
"b.	c #FEFBEB",
"c.	c #FFDC94",
"d.	c #FEB130",
"e.	c #FEB945",
"f.	c #FEECC3",
"g.	c #FEFAE7",
"h.	c #FEDD84",
"i.	c #F5A152",
"j.	c #9E1700",
"k.	c #490400",
"l.	c #280200",
"m.	c #5E0700",
"n.	c #A72100",
"o.	c #3E1B00",
"p.	c #FC7900",
"q.	c #FED049",
"r.	c #FEF4C5",
"s.	c #FFF1AD",
"t.	c #FFF9DF",
"u.	c #FFAA09",
"v.	c #FEA500",
"w.	c #FEA809",
"x.	c #FEB91B",
"y.	c #FEE7A1",
"z.	c #FEEFC1",
"A.	c #FD8818",
"B.	c #F1862D",
"C.	c #B52100",
"D.	c #901200",
"E.	c #711100",
"F.	c #7B0C00",
"G.	c #CD3300",
"H.	c #541D00",
"I.	c #FD7900",
"J.	c #FED240",
"K.	c #FEEB9B",
"L.	c #FEE57D",
"M.	c #FEF9DC",
"N.	c #FFFDF7",
"O.	c #FEF6CE",
"P.	c #FEBC13",
"Q.	c #FEDE6C",
"R.	c #FEF1B6",
"S.	c #FED143",
"T.	c #FED458",
"U.	c #FEF6D8",
"V.	c #FEF1C4",
"W.	c #FEC047",
"X.	c #FD9004",
"Y.	c #FD9F0C",
"Z.	c #F66602",
"`.	c #F05000",
" +	c #490F00",
".+	c #F95D00",
"++	c #FEB411",
"@+	c #FEBF1C",
"#+	c #FEA502",
"$+	c #FED45D",
"%+	c #FFFDF4",
"&+	c #FEEA8E",
"*+	c #FFE285",
"=+	c #FEA907",
"-+	c #FEE483",
";+	c #FEDC69",
">+	c #FEAE10",
",+	c #FEA90F",
"'+	c #FEEDB4",
")+	c #FEF4C6",
"!+	c #FED340",
"~+	c #FEDD5E",
"{+	c #FD9B0C",
"]+	c #F55300",
"^+	c #2A0F00",
"/+	c #F95A00",
"(+	c #FE9500",
"_+	c #FE8D00",
":+	c #FE8800",
"<+	c #FD8304",
"[+	c #FEE6A6",
"}+	c #FDA01E",
"|+	c #FEC94C",
"1+	c #FEE177",
"2+	c #FEC337",
"3+	c #FEAA03",
"4+	c #FE9600",
"5+	c #FE9D00",
"6+	c #FEE3A5",
"7+	c #FEDF61",
"8+	c #FEE162",
"9+	c #FEAD19",
"0+	c #F65A00",
"a+	c #210600",
"b+	c #EB4700",
"c+	c #FC7800",
"d+	c #FB7300",
"e+	c #D63A00",
"f+	c #911200",
"g+	c #B73000",
"h+	c #FA7F0C",
"i+	c #FEECB9",
"j+	c #FFFDF9",
"k+	c #FFEB92",
"l+	c #FED140",
"m+	c #FEAE16",
"n+	c #FEDB7D",
"o+	c #FEF7D1",
"p+	c #FEE679",
"q+	c #FEDC5C",
"r+	c #FC8A03",
"s+	c #ED4D00",
"t+	c #AA3000",
"u+	c #D42D00",
"v+	c #6A1300",
"w+	c #220100",
"x+	c #450400",
"y+	c #C23200",
"z+	c #FEF3CF",
"A+	c #FFFEFC",
"B+	c #FEFEFD",
"C+	c #FEF6C8",
"D+	c #FEF2BB",
"E+	c #FECF4B",
"F+	c #F96600",
"G+	c #B53D00",
"H+	c #501600",
"I+	c #680A00",
"J+	c #110000",
"K+	c #2C0300",
"L+	c #B42800",
"M+	c #FB8400",
"N+	c #FEEBAC",
"O+	c #FFFEFD",
"P+	c #FEFAE9",
"Q+	c #FEF3B8",
"R+	c #FEEEA2",
"S+	c #FEB422",
"T+	c #EC4000",
"U+	c #551500",
"V+	c #861C00",
"W+	c #490600",
"X+	c #CA3D00",
"Y+	c #FE9001",
"Z+	c #FEBB16",
"`+	c #FEE98E",
" @	c #FEF7D6",
".@	c #FEF6CF",
"+@	c #FEF8D7",
"@@	c #FED55A",
"#@	c #F86700",
"$@	c #CF3D00",
"%@	c #CF2900",
"&@	c #F86200",
"*@	c #FEC429",
"=@	c #FEE883",
"-@	c #FFF0B0",
";@	c #FFF4C7",
">@	c #FFFBEC",
",@	c #FEFCF8",
"'@	c #FEDF66",
")@	c #FEEFB4",
"!@	c #FD9713",
"~@	c #ED3E00",
"{@	c #471300",
"]@	c #8D3200",
"^@	c #F86500",
"/@	c #FEAB11",
"(@	c #FEE892",
"_@	c #FFF6D1",
":@	c #FFFAE3",
"<@	c #FFFBE9",
"[@	c #FEFBED",
"}@	c #FEFBE9",
"|@	c #FEF8D8",
"1@	c #FEF4B8",
"2@	c #FEFCF2",
"3@	c #FEEEA6",
"4@	c #FED25B",
"5@	c #FC9718",
"6@	c #F34C00",
"7@	c #892F00",
"8@	c #A04300",
"9@	c #FB7200",
"0@	c #FDA611",
"a@	c #FED65E",
"b@	c #FEF8E3",
"c@	c #FFFCF5",
"d@	c #FFFCF7",
"e@	c #FEFAEA",
"f@	c #FEFAEC",
"g@	c #FEF5C9",
"h@	c #FDC783",
"i@	c #EC4A00",
"j@	c #E63500",
"k@	c #8E3100",
"l@	c #6C3200",
"m@	c #EF6E00",
"n@	c #FC8302",
"o@	c #FEB73B",
"p@	c #FEE48C",
"q@	c #FEEEAB",
"r@	c #FEF4C0",
"s@	c #FEEEAE",
"t@	c #FEE89E",
"u@	c #FECE5C",
"v@	c #FA830A",
"w@	c #E9550B",
"x@	c #AD2100",
"y@	c #5B1900",
"z@	c #210E00",
"A@	c #944803",
"B@	c #EC7005",
"C@	c #FC8200",
"D@	c #F97101",
"E@	c #FA8004",
"F@	c #F76C02",
"G@	c #F15B00",
"H@	c #F75E00",
"I@	c #DA4700",
"J@	c #78340A",
"K@	c #140601",
"L@	c #3F1F00",
"M@	c #6B3101",
"N@	c #7A3300",
"O@	c #7B3400",
"P@	c #652F00",
"Q@	c #351800",
"                    . + @ #                     ",
"              $ % & * = - ; > , '               ",
"          ) ! ~ { ] ^ / ( _ : < [ } |           ",
"        1 2 3 4 5 6 7 8 9 0 a b c d e f         ",
"      g h i j k l m n o p p q r s t u v w       ",
"    x y z A B C D E F G H I J K L M N O P       ",
"    Q R S T U V W X Y H H H H Z `  ...+.@.#.    ",
"  $.%.&.*.=.-.;.Y >.,.'.).H H H !.~.{.].^./.    ",
"  (._.:.<.J [.Y [.}.[.H H H H |.1.2.3.4.5.6.7.  ",
"  8.9.0.a.b.[.Y [.X c.d.e.f.H g.h.i.j.k.l.m.n.  ",
"o.p.q.r.s.T Y [.;.t.u.v.w.x.y.z.A.B.C.D.E.F.G.  ",
"H.I.J.K.L.M.;.N.Y O.P.Q.R.S.T.'.U.V.W.X.Y.Z.`.  ",
" +.+++@+#+$+%+&+N.*+=+-+;+>+,+'+).|.)+!+~+{+]+^+",
"  /+(+_+:+<+[+}+|+1+2+3+4+_+5+6+H H q 7+8+9+0+a+",
"  b+c+d+e+f+g+h+i+j+k+l+,+m+n+).H H o+p+q+r+s+  ",
"  t+u+v+w+x+y+z+5 A+A+|.q g.B+H H 1.C+D+E+F+G+  ",
"  H+I+J+K+L+M+N+[.O+Y H H H H H H P+Q+R+S+T+U+  ",
"    V+W+X+Y+Z+`+-.X Y H H H H Z  @.@+@@@#@$@    ",
"      %@&@*@=@-@;@>@W H H Z ,@J '@K )@!@~@{@    ",
"      ]@^@/@(@*._@:@<@[@}@|@1@2@3@4@5@6@7@      ",
"        8@9@0@a@b@c@d@|.e@f@O.g@h@i@j@k@        ",
"          l@m@n@o@p@q@r@s@t@u@v@w@x@y@          ",
"            z@A@B@C@D@E@F@G@H@I@J@K@            ",
"                  L@M@N@O@P@Q@                  "};
